<svg width="12" height="14" viewBox="0 0 12 14" fill="none" xmlns="http://www.w3.org/2000/svg">
<rect width="12" height="14" fill="#E5E5E5"/>
<g clip-path="url(#clip0_403_14)">
<rect width="428" height="926" transform="translate(-68 -233)" fill="white"/>
<rect x="-68" y="-233" width="428" height="926" fill="white"/>
<g clip-path="url(#clip1_403_14)">
<path d="M12 0.333313V13.6666H10.6667V8.99998H8V4.33331C8 3.27245 8.42143 2.25503 9.17157 1.50489C9.92172 0.75474 10.9391 0.333313 12 0.333313ZM10.6667 2.01998C10.1133 2.33331 9.33333 3.11331 9.33333 4.33331V7.66665H10.6667V2.01998ZM4 8.26665V13.6666H2.66667V8.26665C1.91387 8.11273 1.23733 7.70356 0.75143 7.10834C0.265532 6.51311 9.40437e-05 5.76835 0 4.99998V0.99998H1.33333V5.66665H2.66667V0.99998H4V5.66665H5.33333V0.99998H6.66667V4.99998C6.66657 5.76835 6.40114 6.51311 5.91524 7.10834C5.42934 7.70356 4.75279 8.11273 4 8.26665Z" fill="currentColor"/>
</g>
</g>
<defs>
<clipPath id="clip0_403_14">
<rect width="428" height="926" fill="white" transform="translate(-68 -233)"/>
</clipPath>
<clipPath id="clip1_403_14">
<rect width="16" height="16" fill="white" transform="translate(-2 -1)"/>
</clipPath>
</defs>
</svg>
